<svg width="246" height="175" viewBox="0 0 246 175" fill="none" xmlns="http://www.w3.org/2000/svg">
<path d="M5.69596 0.823032C27.9805 6.0276 50.1416 12.0494 72.4255 17.2542C76.6258 18.2229 77.1594 24.656 72.8259 25.6741C64.7394 28.2979 56.8905 30.456 48.804 33.0798C56.6062 36.7658 64.0948 35.8904 72.8745 34.2075C76.6185 33.7699 80.9429 33.9212 83.2517 37.446C86.949 42.8525 83.1395 51.4719 81.4583 57.0693C77.1364 71.2953 71.0654 84.9232 68.4921 99.7477C65.9001 116.91 76.5617 113.839 87.1373 106.91C98.4161 99.7533 108.896 90.1352 117.742 80.2703C133.077 62.8594 148.545 43.4618 169.668 33.1112C181.403 27.3605 202.091 27.6429 206.407 43.3413C211.864 62.5545 204.874 88.9164 194.803 105.785C190.053 115.098 150.32 172.291 181.811 166.347C204.874 161.973 226.014 134.907 240.76 118.075C242.764 115.871 246.366 118.588 244.827 121.03C232.4 140.217 214.49 158.075 194.641 169.956C183.837 176.182 161.135 179.273 160.23 160.914C159.116 139.514 177.045 119.318 187.704 101.87C194.687 91.0551 197.726 76.4681 199.929 64.0953C204.582 37.7152 183.695 33.2232 165.128 45.4651C142.447 60.5957 127.874 85.1435 107.625 102.983C100.328 109.237 76.3085 131.02 64.8272 119.59C51.6072 106.392 64.8034 78.7944 69.942 64.6919C69.8185 65.5092 78.8906 41.9698 75.3835 41.942C71.877 41.9139 68.0101 43.1686 64.2659 43.6056C57.1297 44.3673 50.9425 43.2654 45.2411 40.0636C47.7601 46.6296 49.576 53.4238 50.6888 60.4462C51.1264 64.1902 45.9667 66.2529 43.2961 64.0106C25.543 47.6208 15.4293 26.032 1.08721 6.98101C-1.34565 4.27363 1.84665 -0.259585 5.69596 0.823032ZM35.9467 32.9764C35.2622 30.8669 36.792 29.5933 38.3124 29.4886C38.6733 28.2057 39.4999 27.1603 40.9063 26.704C45.4769 25.2209 50.3991 23.6238 54.9697 22.1408C41.4374 18.7596 28.2561 15.2646 14.7238 11.8834C22.9262 23.9887 30.188 36.7879 39.5689 47.733C38.4377 43.0489 37.1922 38.0126 35.9467 32.9764Z" fill="#425269"/>
</svg>
